<svg width="34" height="34" viewBox="0 0 34 34" fill="none" xmlns="http://www.w3.org/2000/svg">
<circle cx="17" cy="17" r="15" fill="#232527"/>
<g filter="url(#filter0_d_348_553)">
<circle cx="17" cy="17" r="11.5" stroke="#2A8FAF"/>
</g>
<g filter="url(#filter1_d_348_553)">
<path d="M11.25 22.7823H15.5726C16.1249 22.7823 16.5726 22.3345 16.5726 21.7823L16.5726 19.4274C16.5726 18.8751 16.1249 18.4274 15.5726 18.4274H11.25M11.25 22.7823L11.25 18.4274M11.25 22.7823V23.75M11.25 15.5242H15.0887C15.641 15.5242 16.0887 15.0765 16.0887 14.5242V12.1694C16.0887 11.6171 15.641 11.1694 15.0887 11.1694H12.25C11.6977 11.1694 11.25 11.6171 11.25 12.1694V15.5242ZM11.25 15.5242V18.4274M20.9274 23.75L20.9274 11.6532M20.9274 9.23387L20.9274 11.6532M20.9274 11.6532H19.0242C18.4719 11.6532 18.0242 12.1009 18.0242 12.6532L18.0242 20.3629M20.9274 11.6532H22.8306C23.3829 11.6532 23.8306 12.1009 23.8306 12.6532V19.3629C23.8306 19.9152 23.3829 20.3629 22.8306 20.3629H22.379M14.1532 8.75L13.6694 10.6855" stroke="#2A8FAF" stroke-linecap="round" stroke-linejoin="round"/>
</g>
<defs>
<filter id="filter0_d_348_553" x="0" y="0" width="34" height="34" filterUnits="userSpaceOnUse" color-interpolation-filters="sRGB">
<feFlood flood-opacity="0" result="BackgroundImageFix"/>
<feColorMatrix in="SourceAlpha" type="matrix" values="0 0 0 0 0 0 0 0 0 0 0 0 0 0 0 0 0 0 127 0" result="hardAlpha"/>
<feOffset/>
<feGaussianBlur stdDeviation="2.5"/>
<feColorMatrix type="matrix" values="0 0 0 0 0.1995 0 0 0 0 0.64638 0 0 0 0 0.7875 0 0 0 0.4 0"/>
<feBlend mode="normal" in2="BackgroundImageFix" result="effect1_dropShadow_348_553"/>
<feBlend mode="normal" in="SourceGraphic" in2="effect1_dropShadow_348_553" result="shape"/>
</filter>
<filter id="filter1_d_348_553" x="5.75" y="3.24988" width="23.5807" height="26.0001" filterUnits="userSpaceOnUse" color-interpolation-filters="sRGB">
<feFlood flood-opacity="0" result="BackgroundImageFix"/>
<feColorMatrix in="SourceAlpha" type="matrix" values="0 0 0 0 0 0 0 0 0 0 0 0 0 0 0 0 0 0 127 0" result="hardAlpha"/>
<feOffset/>
<feGaussianBlur stdDeviation="2.5"/>
<feColorMatrix type="matrix" values="0 0 0 0 0.1995 0 0 0 0 0.64638 0 0 0 0 0.7875 0 0 0 0.4 0"/>
<feBlend mode="normal" in2="BackgroundImageFix" result="effect1_dropShadow_348_553"/>
<feBlend mode="normal" in="SourceGraphic" in2="effect1_dropShadow_348_553" result="shape"/>
</filter>
</defs>
</svg>
