<?xml version="1.0" standalone="no"?>
<!DOCTYPE svg PUBLIC "-//W3C//DTD SVG 20010904//EN"
 "http://www.w3.org/TR/2001/REC-SVG-20010904/DTD/svg10.dtd">
<svg version="1.0" xmlns="http://www.w3.org/2000/svg"
 width="700.000000pt" height="700.000000pt" viewBox="0 0 700.000000 700.000000"
 preserveAspectRatio="xMidYMid meet">
<metadata>
Created by potrace 1.14, written by Peter Selinger 2001-2017
</metadata>
<g transform="translate(0.000000,700.000000) scale(0.100000,-0.100000)"
fill="#000000" stroke="none">
<path d="M3335 6994 c-33 -2 -112 -9 -175 -15 -1473 -141 -2701 -1205 -3055
-2644 -70 -286 -98 -522 -98 -835 0 -313 28 -549 98 -835 310 -1262 1298
-2250 2560 -2560 282 -69 527 -98 835 -98 558 0 1041 111 1535 353 505 247
921 591 1259 1040 135 180 222 320 326 525 253 501 373 1007 373 1575 0 568
-120 1074 -373 1575 -224 443 -528 822 -908 1133 -526 429 -1138 687 -1822
766 -128 15 -448 26 -555 20z m503 -289 c612 -64 1190 -302 1679 -691 125 -99
397 -371 495 -494 467 -588 708 -1275 708 -2020 0 -886 -348 -1703 -986 -2320
-605 -584 -1389 -900 -2234 -900 -510 0 -970 107 -1425 331 -991 488 -1665
1454 -1780 2551 -17 169 -20 472 -5 633 58 625 300 1224 694 1720 102 128 372
398 499 499 482 384 1063 625 1662 690 179 19 512 20 693 1z"/>
<path d="M2502 6200 c-37 -9 -68 -34 -87 -70 -7 -14 -50 -177 -96 -362 l-83
-338 -233 0 c-211 0 -237 -2 -288 -21 -74 -28 -132 -73 -177 -139 -73 -107
-68 40 -66 -2106 3 -1876 4 -1930 22 -1957 55 -81 188 -78 233 6 12 22 18 63
21 135 l4 102 669 0 c450 0 685 4 721 11 120 25 216 100 267 208 l26 56 0 560
0 560 -33 67 c-52 105 -146 176 -264 198 -29 6 -334 10 -719 10 l-669 0 0 325
0 325 609 0 c582 0 612 1 672 20 81 26 150 76 193 143 67 101 67 105 64 693
l-3 529 -27 57 c-37 79 -98 142 -177 181 l-65 32 -248 3 c-137 2 -248 5 -248
8 0 2 34 141 76 307 56 224 74 313 71 345 -9 81 -83 131 -165 112z m480 -1069
l33 -29 0 -501 0 -501 -28 -27 -27 -28 -605 -3 -605 -2 0 531 0 531 29 29 29
29 571 0 571 0 32 -29z m159 -2320 l29 -29 0 -497 0 -497 -29 -29 -29 -29
-681 0 -681 0 0 555 0 555 681 0 681 0 29 -29z"/>
<path d="M4634 6034 c-17 -8 -41 -32 -52 -53 -21 -38 -22 -49 -22 -369 l0
-331 -323 -3 -322 -3 -67 -33 c-82 -40 -157 -119 -190 -200 l-23 -57 0 -1330
c0 -1285 1 -1331 19 -1361 50 -83 178 -87 232 -7 18 27 19 72 24 1343 3 723 9
1323 13 1332 5 9 24 24 42 32 29 14 74 16 312 14 l278 -3 5 -1885 c5 -1778 6
-1887 23 -1913 37 -56 126 -77 184 -42 62 37 58 -115 63 1950 l5 1890 280 3
c250 2 284 0 315 -15 19 -10 40 -29 47 -43 10 -20 13 -280 13 -1198 0 -1275 3
-1214 -55 -1240 -16 -7 -78 -12 -161 -12 -92 0 -145 -4 -168 -14 -98 -41 -106
-191 -12 -241 26 -14 59 -16 216 -13 165 3 190 5 233 25 70 33 149 113 183
186 l29 62 0 1250 0 1250 -21 45 c-35 72 -80 127 -136 164 -90 60 -135 66
-470 66 l-298 0 0 338 c0 317 -1 339 -20 369 -36 59 -111 79 -176 47z"/>
</g>
</svg>
