<svg width="30" height="30" viewBox="0 0 30 30" fill="none" xmlns="http://www.w3.org/2000/svg">
<circle cx="15" cy="15" r="15" fill="white"/>
<circle cx="15" cy="15" r="11.5" stroke="#3D68A9"/>
<path d="M9 21H13.5C14.0523 21 14.5 20.5523 14.5 20L14.5 17.5C14.5 16.9477 14.0523 16.5 13.5 16.5H9M9 21L9 16.5M9 21V22M9 13.5H13C13.5523 13.5 14 13.0523 14 12.5V10C14 9.44772 13.5523 9 13 9H10C9.44772 9 9 9.44772 9 10V13.5ZM9 13.5V16.5M19 22L19 9.5M19 7L19 9.5M19 9.5H17C16.4477 9.5 16 9.94772 16 10.5L16 18.5M19 9.5H21C21.5523 9.5 22 9.94772 22 10.5V17.5C22 18.0523 21.5523 18.5 21 18.5H20.5M12 6.5L11.5 8.5" stroke="#3D68A9" stroke-linecap="round" stroke-linejoin="round"/>
</svg>
