<svg width="30" height="30" viewBox="0 0 30 30" fill="none" xmlns="http://www.w3.org/2000/svg">
<circle cx="15" cy="15" r="15" fill="#00000066"/>
<circle cx="15" cy="15" r="14.25" stroke="#ffffffaa" stroke-width="1.5"/>
<path d="M7.57632 22.4784H13.281C13.8333 22.4784 14.281 22.0307 14.281 21.4784L14.281 17.9928C14.281 17.4405 13.8333 16.9928 13.281 16.9928H7.57633M7.57632 22.4784L7.57633 16.9928M7.57632 22.4784V23.6975M7.57633 13.3357H12.6715C13.2237 13.3357 13.6715 12.888 13.6715 12.3357V8.85012C13.6715 8.29783 13.2237 7.85012 12.6715 7.85012H8.57633C8.02404 7.85012 7.57633 8.29783 7.57633 8.85012V13.3357ZM7.57633 13.3357V16.9928M19.7666 23.6975L19.7666 8.45963M19.7666 5.41206L19.7666 8.45963M19.7666 8.45963H17.1095C16.5572 8.45963 16.1095 8.90735 16.1095 9.45963L16.1095 19.4309M19.7666 8.45963H22.4237C22.976 8.45963 23.4237 8.90735 23.4237 9.45963V18.4309C23.4237 18.9832 22.976 19.4309 22.4237 19.4309H21.5951M11.2334 4.80255L10.6239 7.24061" stroke="#ffffffaa" stroke-width="1.5" stroke-linecap="round" stroke-linejoin="round"/>
</svg>
