<svg width="70" height="70" viewBox="0 0 70 70" fill="none" xmlns="http://www.w3.org/2000/svg">
<g filter="url(#filter0_d_12_443)">
<circle cx="35" cy="35" r="15" fill="white"/>
</g>
<circle cx="35" cy="35" r="11.5" stroke="#3D68A9"/>
<path d="M29 41H33.5C34.0523 41 34.5 40.5523 34.5 40L34.5 37.5C34.5 36.9477 34.0523 36.5 33.5 36.5H29M29 41L29 36.5M29 41V42M29 33.5H33C33.5523 33.5 34 33.0523 34 32.5V30C34 29.4477 33.5523 29 33 29H30C29.4477 29 29 29.4477 29 30V33.5ZM29 33.5V36.5M39 42L39 29.5M39 27L39 29.5M39 29.5H37C36.4477 29.5 36 29.9477 36 30.5L36 38.5M39 29.5H41C41.5523 29.5 42 29.9477 42 30.5V37.5C42 38.0523 41.5523 38.5 41 38.5H40.5M32 26.5L31.5 28.5" stroke="#3D68A9" stroke-linecap="round" stroke-linejoin="round"/>
<defs>
<filter id="filter0_d_12_443" x="0" y="0" width="70" height="70" filterUnits="userSpaceOnUse" color-interpolation-filters="sRGB">
<feFlood flood-opacity="0" result="BackgroundImageFix"/>
<feColorMatrix in="SourceAlpha" type="matrix" values="0 0 0 0 0 0 0 0 0 0 0 0 0 0 0 0 0 0 127 0" result="hardAlpha"/>
<feOffset/>
<feGaussianBlur stdDeviation="10"/>
<feComposite in2="hardAlpha" operator="out"/>
<feColorMatrix type="matrix" values="0 0 0 0 0 0 0 0 0 0 0 0 0 0 0 0 0 0 0.15 0"/>
<feBlend mode="normal" in2="BackgroundImageFix" result="effect1_dropShadow_12_443"/>
<feBlend mode="normal" in="SourceGraphic" in2="effect1_dropShadow_12_443" result="shape"/>
</filter>
</defs>
</svg>
