<svg width="30" height="30" viewBox="0 0 30 30" fill="none" xmlns="http://www.w3.org/2000/svg">
<path d="M24.6814 24.4085C27.0447 21.9771 28.5 18.6585 28.5 15C28.5 7.54416 22.4558 1.5 15 1.5C7.54416 1.5 1.5 7.54416 1.5 15C1.5 18.6585 2.95529 21.9771 5.31856 24.4085M24.6814 24.4085C22.4977 21.4322 18.9745 19.5 15 19.5C11.0255 19.5 7.50235 21.4322 5.31856 24.4085M24.6814 24.4085C22.2285 26.9322 18.7973 28.5 15 28.5C11.2027 28.5 7.77152 26.9322 5.31856 24.4085M20.25 12.75C20.25 15.6495 17.8995 18 15 18C12.1005 18 9.75 15.6495 9.75 12.75C9.75 9.85051 12.1005 7.5 15 7.5C17.8995 7.5 20.25 9.85051 20.25 12.75Z" stroke="white" stroke-opacity="0.6" stroke-width="2"/>
</svg>
