<svg width="30" height="30" viewBox="0 0 30 30" fill="none" xmlns="http://www.w3.org/2000/svg">
<g id="account">
<g id="Account">
<path d="M21 9C21 12.3137 18.3137 15 15 15C11.6863 15 9 12.3137 9 9C9 5.68629 11.6863 3 15 3C18.3137 3 21 5.68629 21 9Z" stroke="white" stroke-opacity="0.6" stroke-width="2" stroke-linejoin="round"/>
<path d="M9.70814 18.0709C9.62963 18.025 9.54056 18 9.44962 18H9C5.68629 18 3 20.6863 3 24V28C3 28.2761 3.22386 28.5 3.5 28.5H26.5C26.7761 28.5 27 28.2761 27 28V24C27 20.6863 24.3137 18 21 18H20.5504C20.4594 18 20.3704 18.025 20.2919 18.0709C18.738 18.9794 16.9298 19.5 15 19.5C13.0702 19.5 11.262 18.9794 9.70814 18.0709Z" stroke="white" stroke-opacity="0.6" stroke-width="2" stroke-linejoin="round"/>
</g>
</g>
</svg>
