<svg width="30" height="30" viewBox="0 0 30 30" fill="none" xmlns="http://www.w3.org/2000/svg">
<g id="behaviour">
<g id="Behaviour">
<path d="M7.06811 3.74038L2.68863 11.2481C2.49419 11.5814 2.73462 12 3.12052 12L11.8795 12C12.2654 12 12.5058 11.5814 12.3114 11.2481L7.93189 3.74038C7.73895 3.40963 7.26105 3.40963 7.06811 3.74038Z" stroke="white" stroke-opacity="0.6" stroke-width="2" stroke-linejoin="round"/>
<path d="M27 11.5V3.5C27 3.22386 26.7761 3 26.5 3H18.5C18.2239 3 18 3.22386 18 3.5V11.5C18 11.7761 18.2239 12 18.5 12L26.5 12C26.7761 12 27 11.7761 27 11.5Z" stroke="white" stroke-opacity="0.6" stroke-width="2" stroke-linejoin="round"/>
<path d="M20.2804 27H24.7196C24.8938 27 25.0554 26.9094 25.1462 26.7607L27.5907 22.7607C27.6885 22.6007 27.6885 22.3993 27.5907 22.2393L25.1462 18.2393C25.0554 18.0906 24.8938 18 24.7196 18H20.2804C20.1062 18 19.9446 18.0906 19.8538 18.2393L17.4093 22.2393C17.3115 22.3993 17.3115 22.6007 17.4093 22.7607L19.8538 26.7607C19.9446 26.9094 20.1062 27 20.2804 27Z" stroke="white" stroke-opacity="0.6" stroke-width="2" stroke-linejoin="round"/>
<path d="M7.50002 27.375C10.1924 27.375 12.375 25.1924 12.375 22.5C12.375 19.8076 10.1924 17.625 7.50002 17.625C4.80763 17.625 2.62502 19.8076 2.62502 22.5C2.62502 25.1924 4.80763 27.375 7.50002 27.375Z" stroke="white" stroke-opacity="0.6" stroke-width="2" stroke-linejoin="round"/>
</g>
</g>
</svg>
