<svg width="30" height="30" viewBox="0 0 30 30" fill="none" xmlns="http://www.w3.org/2000/svg">
<g id="filler">
<g id="Vector">
<path d="M27.5 22.5V7.5C27.5 4.73858 25.2614 2.5 22.5 2.5H7.5C4.73858 2.5 2.5 4.73858 2.5 7.5V22.5C2.5 25.2614 4.73858 27.5 7.5 27.5H22.5C25.2614 27.5 27.5 25.2614 27.5 22.5Z" stroke="white" stroke-opacity="0.6" stroke-width="2" stroke-linejoin="round"/>
<path d="M16.5 13.5H24.5L16.5 5.5V13.5Z" stroke="white" stroke-opacity="0.6" stroke-width="2" stroke-linejoin="round"/>
<path d="M5.5 9.5C5.5 7.29086 7.29086 5.5 9.5 5.5H13.5V13.5H5.5V9.5Z" stroke="white" stroke-opacity="0.6" stroke-width="2" stroke-linejoin="round"/>
<path d="M20.5 24C18.2909 24 16.5 22.2091 16.5 20V16.5H20C22.2091 16.5 24 18.2909 24 20.5V24H20.5Z" stroke="white" stroke-opacity="0.6" stroke-width="2" stroke-linejoin="round"/>
<path d="M5.50001 19.5L10.5 24.5L13.5 21.5V16.5H8.50001L5.50001 19.5Z" stroke="white" stroke-opacity="0.6" stroke-width="2" stroke-linejoin="round"/>
</g>
</g>
</svg>
