<svg width="30" height="30" viewBox="0 0 30 30" fill="none" xmlns="http://www.w3.org/2000/svg">
<g id="settings 2">
<path id="Settings 3" d="M15 9H3M15 9C15 11.4853 17.0147 13.5 19.5 13.5C21.9853 13.5 24 11.4853 24 9M15 9C15 6.51472 17.0147 4.5 19.5 4.5C21.9853 4.5 24 6.51472 24 9M27 9H24M6 21H3M6 21C6 23.4853 8.01472 25.5 10.5 25.5C12.9853 25.5 15 23.4853 15 21M6 21C6 18.5147 8.01472 16.5 10.5 16.5C12.9853 16.5 15 18.5147 15 21M27 21H15" stroke="white" stroke-opacity="0.6" stroke-width="2" stroke-linecap="round" stroke-linejoin="round"/>
</g>
</svg>
