<svg width="24" height="24" viewBox="0 0 24 24" fill="none" xmlns="http://www.w3.org/2000/svg">
<path d="M9 6.5H14M19 6.5H14M8.5 16.5H14M19.5 16.5H14M14 14.5H11C10.4477 14.5 10 14.0523 10 13.5V11.5M14 14.5H17C17.5523 14.5 18 14.0523 18 13.5V11.5M14 14.5V16.5M14 14.5V11.5M14 20V16.5M14 4V6.5M14 8.5H11C10.4477 8.5 10 8.94772 10 9.5V11.5M14 8.5H17C17.5523 8.5 18 8.94772 18 9.5V11.5M14 8.5V6.5M14 8.5V11.5M18 11.5H14M10 11.5H14M7 19.5V6M7 6L4.5 8.5M7 6L9 4" stroke="white" stroke-linecap="round" stroke-linejoin="round"/>
<circle cx="12" cy="12" r="11.5" stroke="white"/>
</svg>
