<svg width="24" height="24" viewBox="0 0 24 24" fill="none" xmlns="http://www.w3.org/2000/svg">
<circle cx="12" cy="12" r="11.5" stroke="white" stroke-linecap="round" stroke-linejoin="round"/>
<path d="M5.5 6.5H12M18.5 6.5H12M5 16.5H12M19 16.5H12M12 14.5H8C7.44772 14.5 7 14.0523 7 13.5V11.5M12 14.5H16C16.5523 14.5 17 14.0523 17 13.5V11.5M12 14.5V16.5M12 14.5V11.5M12 20V16.5M12 4V6.5M12 8.5H8C7.44772 8.5 7 8.94772 7 9.5V11.5M12 8.5H16C16.5523 8.5 17 8.94772 17 9.5V11.5M12 8.5V6.5M12 8.5V11.5M17 11.5H12M7 11.5H12" stroke="white" stroke-linecap="round" stroke-linejoin="round"/>
</svg>
