<svg width="24" height="24" viewBox="0 0 24 24" fill="none" xmlns="http://www.w3.org/2000/svg">
<circle cx="12" cy="12" r="11.5" stroke="white" stroke-linecap="round" stroke-linejoin="round"/>
<path d="M6 18H10.5C11.0523 18 11.5 17.5523 11.5 17L11.5 14.5C11.5 13.9477 11.0523 13.5 10.5 13.5H6M6 18L6 13.5M6 18V19M6 10.5H10C10.5523 10.5 11 10.0523 11 9.5V7C11 6.44772 10.5523 6 10 6H7C6.44772 6 6 6.44772 6 7V10.5ZM6 10.5V13.5M16 19L16 6.5M16 4L16 6.5M16 6.5H14C13.4477 6.5 13 6.94772 13 7.5L13 15.5M16 6.5H18C18.5523 6.5 19 6.94772 19 7.5V14.5C19 15.0523 18.5523 15.5 18 15.5H17.5M9 3.5L8.5 5.5" stroke="white" stroke-linecap="round" stroke-linejoin="round"/>
</svg>
