<svg width="24" height="24" viewBox="0 0 24 24" fill="none" xmlns="http://www.w3.org/2000/svg">
<path d="M6 5.5V9C6 9.55228 6.44772 10 7 10H9M10 10H9M9 10V4.5M9 10V13M9 18.5V13M5.5 13H6.5M10 13H9M9 13H6.5M6.5 13V15.5C6.5 17.5 5.5 18.5 5.5 18.5M18 6H14M18 6L18.25 5.5M18 6C18 6 17.5 7.5 16 9M14 6L14.5 5M14 6C14 6 13.5 7 13 7.5M11 9.5L12 8.5M13 12L14.5 10.5M16 9L13 7.5M16 9L14.5 10.5M13 7.5L12 8.5M12 8.5L14.5 10.5M19 13H11.5M15 18.5H16C16.5523 18.5 17 18.0523 17 17.5V11M14 16.5L13.5 15" stroke="white" stroke-linecap="round" stroke-linejoin="round"/>
<circle cx="12" cy="12" r="11.5" stroke="white"/>
</svg>
