<svg width="24" height="24" viewBox="0 0 24 24" fill="none" xmlns="http://www.w3.org/2000/svg">
<path d="M14 12.5H10M14 12.5H17.5C18.0523 12.5 18.5 12.9477 18.5 13.5V17.5C18.5 18.0523 18.0523 18.5 17.5 18.5V18.5M14 12.5V10M10 12.5V10M10 12.5C10 15.5 10 16 9 18.5M17 7.5H14M10 7.5H14M10 7.5V10M10 7.5V6C10 5.44772 10.4477 5 11 5H14M14 7.5V10M14 7.5V5M17 10H14M10 10H14M17.5 5H14M12 15L12.5 16.5M14 15L14.5 16.5M16 15L16.5 16.5M7 19V5.5M7 5.5L4.5 8M7 5.5L9 3.5" stroke="white" stroke-linecap="round" stroke-linejoin="round"/>
<circle cx="12" cy="12" r="11.5" stroke="white"/>
</svg>
