<svg width="24" height="24" viewBox="0 0 24 24" fill="none" xmlns="http://www.w3.org/2000/svg">
<path d="M12 12.5H7M12 12.5H16.5C17.0523 12.5 17.5 12.9477 17.5 13.5V17.5C17.5 18.0523 17.0523 18.5 16.5 18.5V18.5M12 12.5V10M7 12.5V10M7 12.5C7 15.5 7 16 6 18.5M16 7.5H12M7 7.5H12M7 7.5V10M7 7.5V6C7 5.44772 7.44772 5 8 5H12M12 7.5V10M12 7.5V5M16 10H12M7 10H12M16.5 5H12M9.5 15L10 16.5M12 15L12.5 16.5M14.5 15L15 16.5" stroke="white" stroke-linecap="round" stroke-linejoin="round"/>
<circle cx="12" cy="12" r="11.5" stroke="white"/>
</svg>
