<svg width="24" height="24" viewBox="0 0 24 24" fill="none" xmlns="http://www.w3.org/2000/svg">
<circle cx="12" cy="12" r="11.5" stroke="white" stroke-linecap="round" stroke-linejoin="round"/>
<path d="M8.00004 4.5V12.5C8.00004 14.5 7.50003 15.5 7.00003 16.5L6 18.5M10.9998 10L14 4.5M13 6.5H16.9999C17.5522 6.5 17.9999 6.94772 17.9999 7.5V13.5C17.9999 14.0523 17.5522 14.5 16.9999 14.5V14.5M18.4999 16.5V17C18.4999 17.5523 18.0522 18 17.4999 18H13.4998C12.9475 18 12.4998 17.5523 12.4998 17V13M12.4999 9H15C15.5523 9 16 9.44774 16 10L15.9999 12C15.9999 12.5523 15.5522 13 14.9999 13H12.4998M12.4999 9L12.4998 13M12.4999 9L12.5 8.5M9.5 8V10.5M9.00004 14.5L10 17M6.5 11V7.5" stroke="white" stroke-linecap="round" stroke-linejoin="round"/>
</svg>
