<svg width="24" height="24" viewBox="0 0 24 24" fill="none" xmlns="http://www.w3.org/2000/svg">
<path d="M5.99995 6H8.99998M11.4999 6H8.99998M11.5 9L14.9999 4.5M13.9999 6.5H17.5C18.0523 6.5 18.5 6.94772 18.5 7.5V13.5C18.5 14.0523 18.0523 14.5 17.5 14.5V14.5M19 16.5V17C19 17.5523 18.5523 18 18 18H13.9999C13.4477 18 12.9999 17.5523 12.9999 17V13M12.9999 8.5H15.5C16.0523 8.5 16.5 8.94772 16.5 9.5V12C16.5 12.5523 16.0523 13 15.5 13H12.9999M12.9999 8.5V13M12.9999 8.5V7.5M5 13.5L7.5 10C8.5 8.5 9 6.5 8.99998 6M7.00004 11V11.5M7.00004 11.5H9.50004C10.0523 11.5 10.5 11.9477 10.5 12.5L10.5 16C10.5 16.5523 10.0523 17 9.50001 17H7.00004M7.00004 11.5V17M7.00004 17.5V17" stroke="white" stroke-linecap="round" stroke-linejoin="round"/>
<circle cx="12" cy="12" r="11.5" stroke="white"/>
</svg>
