<svg width="24" height="24" viewBox="0 0 24 24" fill="none" xmlns="http://www.w3.org/2000/svg">
<circle cx="12" cy="12" r="11.5" stroke="white" stroke-linecap="round" stroke-linejoin="round"/>
<path d="M5.49995 6H8.49998M10.9999 6H8.49998M11 9.5L14 4.5M13 6.5H17C17.5523 6.5 18 6.94772 18 7.5V13.5C18 14.0523 17.5523 14.5 17 14.5V14.5M18.5 16.5V17C18.5 17.5523 18.0523 18 17.5 18H13.4999C12.9477 18 12.4999 17.5523 12.4999 17V13M12.5 9H15C15.5523 9 16 9.44772 16 10L16 12C16 12.5523 15.5523 13 15 13H12.4999M12.5 9L12.4999 13M12.5 9V8.5M4.5 13.5L7 10C8 8.5 8.5 6.5 8.49998 6M6.50004 11V11.5M6.50004 11.5H9.00004C9.55233 11.5 10 11.9477 10 12.5L10 16C10 16.5523 9.55229 17 9.00001 17H6.50004M6.50004 11.5V17M6.50004 17.5V17" stroke="white" stroke-linecap="round" stroke-linejoin="round"/>
</svg>
