<svg width="24" height="24" viewBox="0 0 24 24" fill="none" xmlns="http://www.w3.org/2000/svg">
<circle cx="12" cy="12" r="11.5" stroke="white" stroke-linecap="round" stroke-linejoin="round"/>
<path d="M12 10H18M12 10L12 14.5M12 10V6.5C12 5.94772 12.4477 5.5 13 5.5H17C17.5523 5.5 18 5.94772 18 6.5V10M18 10L18 14.5M12 14.5L12 18C12 18.5523 12.4477 19 13 19H17C17.5523 19 18 18.5523 18 18L18 14.5M12 14.5H18M8 19V7.5M8 4.5V7.5M5 7.5H8M10.5 7.5H8M8 7.5L10 13.5M8 7.5L6.5 13.5C6 15.5 5 17 5 17" stroke="white" stroke-linecap="round" stroke-linejoin="round"/>
</svg>
