<svg width="24" height="24" viewBox="0 0 24 24" fill="none" xmlns="http://www.w3.org/2000/svg">
<path d="M12 10.5H18M12 10.5L12 15M12 10.5V7C12 6.44772 12.4477 6 13 6H17C17.5523 6 18 6.44772 18 7V10.5M18 10.5L18 15M12 15L12 18.5C12 19.0523 12.4477 19.5 13 19.5H17C17.5523 19.5 18 19.0523 18 18.5L18 15M12 15H18M8 19.5V8M8 5V8M5 8H8M10.5 8H8M8 8L10 14M8 8L6.5 14C6 16 5 17.5 5 17.5" stroke="white" stroke-linecap="round" stroke-linejoin="round"/>
<circle cx="12" cy="12" r="11.5" stroke="white"/>
</svg>
