<svg width="24" height="24" viewBox="0 0 24 24" fill="none" xmlns="http://www.w3.org/2000/svg">
<path d="M7 15L13.5 12.5M12 10.5C12 10.5 13 11 13.5 12.5M11.5 19H13C13.5523 19 14 18.5523 14 18V15M15.5 4L13.5 6M13.5 12.5C13.5 12.5 14 14 14 15M13.5 6.5H9C8.44772 6.5 8 6.94772 8 7.5V8C8 8.55228 8.44772 9 9 9H12.5M13.5 6.5H16.5C17.0523 6.5 17.5 6.94772 17.5 7.5V8C17.5 8.55228 17.0523 9 16.5 9H12.5M13.5 6.5L12.5 9M12.5 9C12.5 9 11.5 11 10 11.5L6 13M10.5 3.5L9.5 4.5M15 4.5H9.5M9.5 4.5C9.5 4.5 8 6 7.5 6.5C7 7 6.5 7.25 5.5 7.5M7 17.5L14 15M19 17.5H18.4117C18.148 17.5 17.8949 17.3958 17.7076 17.2101L14.6809 14.2093C14.2032 13.7358 14.3199 12.9351 14.9129 12.6176L17 11.5" stroke="white" stroke-linecap="round" stroke-linejoin="round"/>
<circle cx="12" cy="12" r="11.5" stroke="white"/>
</svg>
