<svg width="30" height="30" viewBox="0 0 30 30" fill="none" xmlns="http://www.w3.org/2000/svg">
<circle cx="15" cy="15" r="15" fill="#232527"/>
<circle cx="15" cy="15" r="11.5" stroke="#2A8FAF"/>
<path d="M9.25 20.7823H13.5726C14.1249 20.7823 14.5726 20.3345 14.5726 19.7823L14.5726 17.4274C14.5726 16.8751 14.1249 16.4274 13.5726 16.4274H9.25M9.25 20.7823L9.25 16.4274M9.25 20.7823V21.75M9.25 13.5242H13.0887C13.641 13.5242 14.0887 13.0765 14.0887 12.5242V10.1694C14.0887 9.61707 13.641 9.16935 13.0887 9.16935H10.25C9.69772 9.16935 9.25 9.61707 9.25 10.1694V13.5242ZM9.25 13.5242V16.4274M18.9274 21.75L18.9274 9.65323M18.9274 7.23387L18.9274 9.65323M18.9274 9.65323H17.0242C16.4719 9.65323 16.0242 10.1009 16.0242 10.6532L16.0242 18.3629M18.9274 9.65323H20.8306C21.3829 9.65323 21.8306 10.1009 21.8306 10.6532V17.3629C21.8306 17.9152 21.3829 18.3629 20.8306 18.3629H20.379M12.1532 6.75L11.6694 8.68548" stroke="#2A8FAF" stroke-linecap="round" stroke-linejoin="round"/>
</svg>
