<svg width="30" height="30" viewBox="0 0 30 30" fill="none"
	xmlns="http://www.w3.org/2000/svg">
	<circle cx="15" cy="15" r="14.4" fill="#232527" stroke="#2A8FAF" stroke-width="1.2" />
	<path d="M6.89568 23.1853H13.1763C13.7285 23.1853 14.1763 22.7376 14.1763 22.1853L14.1763 18.2284C14.1763 17.6762 13.7285 17.2284 13.1763 17.2284H6.89569M6.89568 23.1853L6.89569 17.2284M6.89568 23.1853V24.509M6.89569 13.2572H12.5144C13.0667 13.2572 13.5144 12.8095 13.5144 12.2572V8.30038C13.5144 7.7481 13.0667 7.30038 12.5144 7.30038H7.89569C7.3434 7.30038 6.89569 7.7481 6.89569 8.30038V13.2572ZM6.89569 13.2572V17.2284M20.1331 24.509L20.1331 7.96225M20.1331 4.6529L20.1331 7.96225M20.1331 7.96225H17.1619C16.6096 7.96225 16.1619 8.40997 16.1619 8.96225L16.1619 19.8759M20.1331 7.96225H23.1043C23.6566 7.96225 24.1043 8.40997 24.1043 8.96225V18.8759C24.1043 19.4282 23.6566 19.8759 23.1043 19.8759H22.1187M10.8669 3.99103L10.205 6.63851" stroke="#2A8FAF" stroke-width="1.2" stroke-linecap="round" stroke-linejoin="round"/>
	<style>
		*[stroke] {
				backdrop-filter: invert(50%);
		}
	</style>
</svg>
