<svg width="50" height="50" viewBox="0 0 50 50" fill="none" xmlns="http://www.w3.org/2000/svg">
<rect width="50" height="50" fill="#232527"/>
<g filter="url(#filter0_d_372_558)">
<circle cx="25" cy="25" r="11.5" stroke="#2A8FAF"/>
</g>
<g filter="url(#filter1_d_372_558)">
<path d="M19.25 30.7823H23.5726C24.1249 30.7823 24.5726 30.3345 24.5726 29.7823L24.5726 27.4274C24.5726 26.8751 24.1249 26.4274 23.5726 26.4274H19.25M19.25 30.7823L19.25 26.4274M19.25 30.7823V31.75M19.25 23.5242H23.0887C23.641 23.5242 24.0887 23.0765 24.0887 22.5242V20.1694C24.0887 19.6171 23.641 19.1694 23.0887 19.1694H20.25C19.6977 19.1694 19.25 19.6171 19.25 20.1694V23.5242ZM19.25 23.5242V26.4274M28.9274 31.75L28.9274 19.6532M28.9274 17.2339L28.9274 19.6532M28.9274 19.6532H27.0242C26.4719 19.6532 26.0242 20.1009 26.0242 20.6532L26.0242 28.3629M28.9274 19.6532H30.8306C31.3829 19.6532 31.8306 20.1009 31.8306 20.6532V27.3629C31.8306 27.9152 31.3829 28.3629 30.8306 28.3629H30.379M22.1532 16.75L21.6694 18.6855" stroke="#2A8FAF" stroke-linecap="round" stroke-linejoin="round"/>
</g>
<defs>
<filter id="filter0_d_372_558" x="10" y="10" width="30" height="30" filterUnits="userSpaceOnUse" color-interpolation-filters="sRGB">
<feFlood flood-opacity="0" result="BackgroundImageFix"/>
<feColorMatrix in="SourceAlpha" type="matrix" values="0 0 0 0 0 0 0 0 0 0 0 0 0 0 0 0 0 0 127 0" result="hardAlpha"/>
<feOffset/>
<feGaussianBlur stdDeviation="1.5"/>
<feColorMatrix type="matrix" values="0 0 0 0 0.1995 0 0 0 0 0.64638 0 0 0 0 0.7875 0 0 0 0.4 0"/>
<feBlend mode="normal" in2="BackgroundImageFix" result="effect1_dropShadow_372_558"/>
<feBlend mode="normal" in="SourceGraphic" in2="effect1_dropShadow_372_558" result="shape"/>
</filter>
<filter id="filter1_d_372_558" x="15.75" y="13.2499" width="19.5807" height="22.0001" filterUnits="userSpaceOnUse" color-interpolation-filters="sRGB">
<feFlood flood-opacity="0" result="BackgroundImageFix"/>
<feColorMatrix in="SourceAlpha" type="matrix" values="0 0 0 0 0 0 0 0 0 0 0 0 0 0 0 0 0 0 127 0" result="hardAlpha"/>
<feOffset/>
<feGaussianBlur stdDeviation="1.5"/>
<feColorMatrix type="matrix" values="0 0 0 0 0.1995 0 0 0 0 0.64638 0 0 0 0 0.7875 0 0 0 0.4 0"/>
<feBlend mode="normal" in2="BackgroundImageFix" result="effect1_dropShadow_372_558"/>
<feBlend mode="normal" in="SourceGraphic" in2="effect1_dropShadow_372_558" result="shape"/>
</filter>
</defs>
</svg>
